<svg xmlns="http://www.w3.org/2000/svg" width="1200" height="630" viewBox="0 0 1200 630">
  <defs>
    <linearGradient id="bg" x1="0%" y1="0%" x2="100%" y2="100%">
      <stop offset="0%" style="stop-color:#030014"/>
      <stop offset="100%" style="stop-color:#0d0b16"/>
    </linearGradient>
    <linearGradient id="accent" x1="0%" y1="0%" x2="100%" y2="0%">
      <stop offset="0%" style="stop-color:#a855f7"/>
      <stop offset="50%" style="stop-color:#06ffa5"/>
      <stop offset="100%" style="stop-color:#3b82f6"/>
    </linearGradient>
    <filter id="glow">
      <feGaussianBlur stdDeviation="8" result="blur"/>
      <feMerge>
        <feMergeNode in="blur"/>
        <feMergeNode in="SourceGraphic"/>
      </feMerge>
    </filter>
  </defs>

  <!-- Background -->
  <rect width="1200" height="630" fill="url(#bg)"/>

  <!-- Subtle grid pattern -->
  <g opacity="0.03">
    <line x1="0" y1="0" x2="0" y2="630" stroke="white" stroke-width="1"/>
    <line x1="50" y1="0" x2="50" y2="630" stroke="white" stroke-width="1"/>
    <line x1="100" y1="0" x2="100" y2="630" stroke="white" stroke-width="1"/>
    <line x1="150" y1="0" x2="150" y2="630" stroke="white" stroke-width="1"/>
    <line x1="200" y1="0" x2="200" y2="630" stroke="white" stroke-width="1"/>
    <line x1="250" y1="0" x2="250" y2="630" stroke="white" stroke-width="1"/>
    <line x1="300" y1="0" x2="300" y2="630" stroke="white" stroke-width="1"/>
    <line x1="350" y1="0" x2="350" y2="630" stroke="white" stroke-width="1"/>
    <line x1="400" y1="0" x2="400" y2="630" stroke="white" stroke-width="1"/>
    <line x1="450" y1="0" x2="450" y2="630" stroke="white" stroke-width="1"/>
    <line x1="500" y1="0" x2="500" y2="630" stroke="white" stroke-width="1"/>
    <line x1="550" y1="0" x2="550" y2="630" stroke="white" stroke-width="1"/>
    <line x1="600" y1="0" x2="600" y2="630" stroke="white" stroke-width="1"/>
    <line x1="650" y1="0" x2="650" y2="630" stroke="white" stroke-width="1"/>
    <line x1="700" y1="0" x2="700" y2="630" stroke="white" stroke-width="1"/>
    <line x1="750" y1="0" x2="750" y2="630" stroke="white" stroke-width="1"/>
    <line x1="800" y1="0" x2="800" y2="630" stroke="white" stroke-width="1"/>
    <line x1="850" y1="0" x2="850" y2="630" stroke="white" stroke-width="1"/>
    <line x1="900" y1="0" x2="900" y2="630" stroke="white" stroke-width="1"/>
    <line x1="950" y1="0" x2="950" y2="630" stroke="white" stroke-width="1"/>
    <line x1="1000" y1="0" x2="1000" y2="630" stroke="white" stroke-width="1"/>
    <line x1="1050" y1="0" x2="1050" y2="630" stroke="white" stroke-width="1"/>
    <line x1="1100" y1="0" x2="1100" y2="630" stroke="white" stroke-width="1"/>
    <line x1="1150" y1="0" x2="1150" y2="630" stroke="white" stroke-width="1"/>
    <line x1="1200" y1="0" x2="1200" y2="630" stroke="white" stroke-width="1"/>
    <line x1="0" y1="0" x2="1200" y2="0" stroke="white" stroke-width="1"/>
    <line x1="0" y1="50" x2="1200" y2="50" stroke="white" stroke-width="1"/>
    <line x1="0" y1="100" x2="1200" y2="100" stroke="white" stroke-width="1"/>
    <line x1="0" y1="150" x2="1200" y2="150" stroke="white" stroke-width="1"/>
    <line x1="0" y1="200" x2="1200" y2="200" stroke="white" stroke-width="1"/>
    <line x1="0" y1="250" x2="1200" y2="250" stroke="white" stroke-width="1"/>
    <line x1="0" y1="300" x2="1200" y2="300" stroke="white" stroke-width="1"/>
    <line x1="0" y1="350" x2="1200" y2="350" stroke="white" stroke-width="1"/>
    <line x1="0" y1="400" x2="1200" y2="400" stroke="white" stroke-width="1"/>
    <line x1="0" y1="450" x2="1200" y2="450" stroke="white" stroke-width="1"/>
    <line x1="0" y1="500" x2="1200" y2="500" stroke="white" stroke-width="1"/>
    <line x1="0" y1="550" x2="1200" y2="550" stroke="white" stroke-width="1"/>
    <line x1="0" y1="600" x2="1200" y2="600" stroke="white" stroke-width="1"/>
    <line x1="0" y1="650" x2="1200" y2="650" stroke="white" stroke-width="1"/>
  </g>

  <!-- Purple glow orb -->
  <circle cx="600" cy="250" r="200" fill="#a855f7" opacity="0.06" filter="url(#glow)"/>

  <!-- Logo / Brand -->
  <text x="600" y="200" text-anchor="middle" font-family="system-ui, -apple-system, sans-serif" font-weight="800" font-size="96" fill="white" letter-spacing="-4">zodify</text>

  <!-- Gradient underline -->
  <rect x="380" y="220" width="440" height="4" rx="2" fill="url(#accent)"/>

  <!-- Tagline -->
  <text x="600" y="290" text-anchor="middle" font-family="system-ui, -apple-system, sans-serif" font-weight="400" font-size="28" fill="#94a3b8" letter-spacing="1">Fastest Pure-Python Validation Library</text>

  <!-- Stats row -->
  <g transform="translate(600, 380)" text-anchor="middle" font-family="'Courier New', monospace">
    
    <g transform="translate(-400, 0)">
      <text y="-12" font-size="11" fill="#64748b" letter-spacing="2">OPS/SEC</text>
      <text y="18" font-size="28" fill="white" font-weight="700">615K</text>
    </g>
    <g transform="translate(-200, 0)">
      <text y="-12" font-size="11" fill="#64748b" letter-spacing="2">SIZE</text>
      <text y="18" font-size="28" fill="white" font-weight="700">48KB</text>
    </g>
    <g transform="translate(0, 0)">
      <text y="-12" font-size="11" fill="#64748b" letter-spacing="2">DEPS</text>
      <text y="18" font-size="28" fill="white" font-weight="700">0</text>
    </g>
    <g transform="translate(200, 0)">
      <text y="-12" font-size="11" fill="#64748b" letter-spacing="2">TESTS</text>
      <text y="18" font-size="28" fill="white" font-weight="700">263</text>
    </g>
    <g transform="translate(400, 0)">
      <text y="-12" font-size="11" fill="#64748b" letter-spacing="2">LOC</text>
      <text y="18" font-size="28" fill="white" font-weight="700">402</text>
    </g>
  </g>

  <!-- Code snippet hint -->
  <g transform="translate(340, 470)">
    <rect width="520" height="52" rx="8" fill="white" fill-opacity="0.05" stroke="white" stroke-opacity="0.1"/>
    <text x="24" y="33" font-family="'Courier New', monospace" font-size="18" fill="#a855f7">$</text>
    <text x="48" y="33" font-family="'Courier New', monospace" font-size="18" fill="#cbd5e1">pip install zodify</text>
  </g>

  <!-- URL -->
  <text x="600" y="580" text-anchor="middle" font-family="'Courier New', monospace" font-size="16" fill="#64748b">zodify.dev</text>

  <!-- Border accent -->
  <rect x="0" y="0" width="1200" height="3" fill="url(#accent)"/>
  <rect x="0" y="627" width="1200" height="3" fill="url(#accent)"/>
</svg>